HIERARCHY
ROOT mixamorig:Hips
{
	OFFSET -0.000008 104.274872 1.554316
	CHANNELS 6 Xposition Yposition Zposition Xrotation Yrotation Zrotation
	JOINT mixamorig:Spine
	{
		OFFSET -0.000005 10.181595 0.131519
		CHANNELS 6 Xposition Yposition Zposition Xrotation Yrotation Zrotation
		JOINT mixamorig:Spine1
		{
			OFFSET -0.000000 9.893959 -1.470707
			CHANNELS 6 Xposition Yposition Zposition Xrotation Yrotation Zrotation
			JOINT mixamorig:Spine2
			{
				OFFSET -0.000000 9.220757 -1.370641
				CHANNELS 6 Xposition Yposition Zposition Xrotation Yrotation Zrotation
				JOINT mixamorig:Neck
				{
					OFFSET 0.000001 16.740417 -2.049036
					CHANNELS 6 Xposition Yposition Zposition Xrotation Yrotation Zrotation
					JOINT mixamorig:Head
					{
						OFFSET 0.000000 9.617874 1.685006
						CHANNELS 6 Xposition Yposition Zposition Xrotation Yrotation Zrotation
						JOINT mixamorig:HeadTop_End
						{
							OFFSET 0.000002 22.037354 7.501101
							CHANNELS 6 Xposition Yposition Zposition Xrotation Yrotation Zrotation
							End Site
							{
								OFFSET 0.000168 2310.654297 -282.823242
							}
						}
					}
				}
				JOINT mixamorig:RightShoulder
				{
					OFFSET -4.569970 11.014908 -2.160885
					CHANNELS 6 Xposition Yposition Zposition Xrotation Yrotation Zrotation
					JOINT mixamorig:RightArm
					{
						OFFSET -10.592851 -0.524811 -2.232101
						CHANNELS 6 Xposition Yposition Zposition Xrotation Yrotation Zrotation
						JOINT mixamorig:RightForeArm
						{
							OFFSET -27.841511 0.000031 -0.000004
							CHANNELS 6 Xposition Yposition Zposition Xrotation Yrotation Zrotation
							JOINT mixamorig:RightHand
							{
								OFFSET -28.328831 -0.000015 0.000015
								CHANNELS 6 Xposition Yposition Zposition Xrotation Yrotation Zrotation
								JOINT mixamorig:RightHandThumb1
								{
									OFFSET -2.464806 -1.573990 2.681852
									CHANNELS 6 Xposition Yposition Zposition Xrotation Yrotation Zrotation
									JOINT mixamorig:RightHandThumb2
									{
										OFFSET -3.215179 -1.872803 1.924282
										CHANNELS 6 Xposition Yposition Zposition Xrotation Yrotation Zrotation
										JOINT mixamorig:RightHandThumb3
										{
											OFFSET -2.654831 -1.527969 1.512609
											CHANNELS 6 Xposition Yposition Zposition Xrotation Yrotation Zrotation
											JOINT mixamorig:RightHandThumb4
											{
												OFFSET -2.018814 -1.152008 1.108052
												CHANNELS 6 Xposition Yposition Zposition Xrotation Yrotation Zrotation
												End Site
												{
													OFFSET -188.809540 -114.533607 132.431396
												}
											}
										}
									}
								}
								JOINT mixamorig:RightHandIndex1
								{
									OFFSET -9.108284 -0.517868 2.259835
									CHANNELS 6 Xposition Yposition Zposition Xrotation Yrotation Zrotation
									JOINT mixamorig:RightHandIndex2
									{
										OFFSET -3.699989 0.000000 0.001215
										CHANNELS 6 Xposition Yposition Zposition Xrotation Yrotation Zrotation
										JOINT mixamorig:RightHandIndex3
										{
											OFFSET -2.850006 0.000031 -0.000522
											CHANNELS 6 Xposition Yposition Zposition Xrotation Yrotation Zrotation
											JOINT mixamorig:RightHandIndex4
											{
												OFFSET -2.772186 -0.000015 -0.000020
												CHANNELS 6 Xposition Yposition Zposition Xrotation Yrotation Zrotation
												End Site
												{
													OFFSET -277.218445 0.000000 -0.050231
												}
											}
										}
									}
								}
								JOINT mixamorig:RightHandMiddle1
								{
									OFFSET -9.532516 -0.000031 -0.000023
									CHANNELS 6 Xposition Yposition Zposition Xrotation Yrotation Zrotation
									JOINT mixamorig:RightHandMiddle2
									{
										OFFSET -3.700005 -0.000015 0.003713
										CHANNELS 6 Xposition Yposition Zposition Xrotation Yrotation Zrotation
										JOINT mixamorig:RightHandMiddle3
										{
											OFFSET -2.949974 0.000015 -0.002054
											CHANNELS 6 Xposition Yposition Zposition Xrotation Yrotation Zrotation
											JOINT mixamorig:RightHandMiddle4
											{
												OFFSET -2.946640 0.000000 -0.000156
												CHANNELS 6 Xposition Yposition Zposition Xrotation Yrotation Zrotation
												End Site
												{
													OFFSET -294.664337 0.000000 -0.113670
												}
											}
										}
									}
								}
								JOINT mixamorig:RightHandRing1
								{
									OFFSET -9.103600 -0.043076 -1.865134
									CHANNELS 6 Xposition Yposition Zposition Xrotation Yrotation Zrotation
									JOINT mixamorig:RightHandRing2
									{
										OFFSET -3.379288 0.000000 -0.001055
										CHANNELS 6 Xposition Yposition Zposition Xrotation Yrotation Zrotation
										JOINT mixamorig:RightHandRing3
										{
											OFFSET -2.889687 -0.000015 0.000379
											CHANNELS 6 Xposition Yposition Zposition Xrotation Yrotation Zrotation
											JOINT mixamorig:RightHandRing4
											{
												OFFSET -2.638809 -0.000015 0.000941
												CHANNELS 6 Xposition Yposition Zposition Xrotation Yrotation Zrotation
												End Site
												{
													OFFSET -263.880371 0.000000 0.516020
												}
											}
										}
									}
								}
								JOINT mixamorig:RightHandPinky1
								{
									OFFSET -8.076683 -0.486710 -3.806280
									CHANNELS 6 Xposition Yposition Zposition Xrotation Yrotation Zrotation
									JOINT mixamorig:RightHandPinky2
									{
										OFFSET -3.600014 -0.000015 -0.003747
										CHANNELS 6 Xposition Yposition Zposition Xrotation Yrotation Zrotation
										JOINT mixamorig:RightHandPinky3
										{
											OFFSET -2.099983 0.000000 -0.005739
											CHANNELS 6 Xposition Yposition Zposition Xrotation Yrotation Zrotation
											JOINT mixamorig:RightHandPinky4
											{
												OFFSET -2.115768 -0.000031 -0.003680
												CHANNELS 6 Xposition Yposition Zposition Xrotation Yrotation Zrotation
												End Site
												{
													OFFSET -211.577087 0.000000 -0.350686
												}
											}
										}
									}
								}
							}
						}
					}
				}
				JOINT mixamorig:LeftShoulder
				{
					OFFSET 4.570447 11.014725 -2.160855
					CHANNELS 6 Xposition Yposition Zposition Xrotation Yrotation Zrotation
					JOINT mixamorig:LeftArm
					{
						OFFSET 10.592371 -0.524597 -2.232119
						CHANNELS 6 Xposition Yposition Zposition Xrotation Yrotation Zrotation
						JOINT mixamorig:LeftForeArm
						{
							OFFSET 27.841532 -0.000031 0.000026
							CHANNELS 6 Xposition Yposition Zposition Xrotation Yrotation Zrotation
							JOINT mixamorig:LeftHand
							{
								OFFSET 28.328846 -0.000061 0.000022
								CHANNELS 6 Xposition Yposition Zposition Xrotation Yrotation Zrotation
								JOINT mixamorig:LeftHandThumb1
								{
									OFFSET 2.466141 -1.576172 2.681732
									CHANNELS 6 Xposition Yposition Zposition Xrotation Yrotation Zrotation
									JOINT mixamorig:LeftHandThumb2
									{
										OFFSET 3.217812 -1.872070 1.916482
										CHANNELS 6 Xposition Yposition Zposition Xrotation Yrotation Zrotation
										JOINT mixamorig:LeftHandThumb3
										{
											OFFSET 2.656029 -1.528778 1.514513
											CHANNELS 6 Xposition Yposition Zposition Xrotation Yrotation Zrotation
											JOINT mixamorig:LeftHandThumb4
											{
												OFFSET 2.020889 -1.154053 1.115139
												CHANNELS 6 Xposition Yposition Zposition Xrotation Yrotation Zrotation
												End Site
												{
													OFFSET 190.885437 -115.081749 130.048782
												}
											}
										}
									}
								}
								JOINT mixamorig:LeftHandIndex1
								{
									OFFSET 9.109314 -0.518021 2.259871
									CHANNELS 6 Xposition Yposition Zposition Xrotation Yrotation Zrotation
									JOINT mixamorig:LeftHandIndex2
									{
										OFFSET 3.699989 0.000000 -0.000322
										CHANNELS 6 Xposition Yposition Zposition Xrotation Yrotation Zrotation
										JOINT mixamorig:LeftHandIndex3
										{
											OFFSET 2.850006 0.000000 0.000352
											CHANNELS 6 Xposition Yposition Zposition Xrotation Yrotation Zrotation
											JOINT mixamorig:LeftHandIndex4
											{
												OFFSET 2.774864 -0.000031 -0.000027
												CHANNELS 6 Xposition Yposition Zposition Xrotation Yrotation Zrotation
												End Site
												{
													OFFSET 277.486267 0.000000 -0.009857
												}
											}
										}
									}
								}
								JOINT mixamorig:LeftHandMiddle1
								{
									OFFSET 9.533394 0.000061 0.000044
									CHANNELS 6 Xposition Yposition Zposition Xrotation Yrotation Zrotation
									JOINT mixamorig:LeftHandMiddle2
									{
										OFFSET 3.699989 -0.000015 -0.000231
										CHANNELS 6 Xposition Yposition Zposition Xrotation Yrotation Zrotation
										JOINT mixamorig:LeftHandMiddle3
										{
											OFFSET 2.949997 -0.000015 -0.000059
											CHANNELS 6 Xposition Yposition Zposition Xrotation Yrotation Zrotation
											JOINT mixamorig:LeftHandMiddle4
											{
												OFFSET 2.952896 0.000031 0.000063
												CHANNELS 6 Xposition Yposition Zposition Xrotation Yrotation Zrotation
												End Site
												{
													OFFSET 295.289337 0.000000 0.022810
												}
											}
										}
									}
								}
								JOINT mixamorig:LeftHandRing1
								{
									OFFSET 9.104523 -0.042999 -1.865074
									CHANNELS 6 Xposition Yposition Zposition Xrotation Yrotation Zrotation
									JOINT mixamorig:LeftHandRing2
									{
										OFFSET 3.150009 -0.000031 0.000043
										CHANNELS 6 Xposition Yposition Zposition Xrotation Yrotation Zrotation
										JOINT mixamorig:LeftHandRing3
										{
											OFFSET 2.949982 -0.000015 0.000040
											CHANNELS 6 Xposition Yposition Zposition Xrotation Yrotation Zrotation
											JOINT mixamorig:LeftHandRing4
											{
												OFFSET 2.644348 0.000000 0.000057
												CHANNELS 6 Xposition Yposition Zposition Xrotation Yrotation Zrotation
												End Site
												{
													OFFSET 264.434631 0.000000 0.012105
												}
											}
										}
									}
								}
								JOINT mixamorig:LeftHandPinky1
								{
									OFFSET 8.077789 -0.486847 -3.806259
									CHANNELS 6 Xposition Yposition Zposition Xrotation Yrotation Zrotation
									JOINT mixamorig:LeftHandPinky2
									{
										OFFSET 3.599953 0.000031 0.014727
										CHANNELS 6 Xposition Yposition Zposition Xrotation Yrotation Zrotation
										JOINT mixamorig:LeftHandPinky3
										{
											OFFSET 2.100021 0.000015 0.007705
											CHANNELS 6 Xposition Yposition Zposition Xrotation Yrotation Zrotation
											JOINT mixamorig:LeftHandPinky4
											{
												OFFSET 2.125504 0.000031 0.007517
												CHANNELS 6 Xposition Yposition Zposition Xrotation Yrotation Zrotation
												End Site
												{
													OFFSET 212.550781 0.000000 0.625752
												}
											}
										}
									}
								}
							}
						}
					}
				}
			}
		}
	}
	JOINT mixamorig:RightUpLeg
	{
		OFFSET -8.207787 -6.751648 -1.599560
		CHANNELS 6 Xposition Yposition Zposition Xrotation Yrotation Zrotation
		JOINT mixamorig:RightLeg
		{
			OFFSET -0.000002 -44.370117 0.345942
			CHANNELS 6 Xposition Yposition Zposition Xrotation Yrotation Zrotation
			JOINT mixamorig:RightFoot
			{
				OFFSET 0.000003 -44.423679 -3.043532
				CHANNELS 6 Xposition Yposition Zposition Xrotation Yrotation Zrotation
				JOINT mixamorig:RightToeBase
				{
					OFFSET -0.000002 -8.728671 10.710558
					CHANNELS 6 Xposition Yposition Zposition Xrotation Yrotation Zrotation
					JOINT mixamorig:RightToe_End
					{
						OFFSET -0.000001 -0.000679 9.278119
						CHANNELS 6 Xposition Yposition Zposition Xrotation Yrotation Zrotation
						End Site
						{
							OFFSET 0.000000 -0.067690 927.812134
						}
					}
				}
			}
		}
	}
	JOINT mixamorig:LeftUpLeg
	{
		OFFSET 8.207793 -6.751686 -1.599556
		CHANNELS 6 Xposition Yposition Zposition Xrotation Yrotation Zrotation
		JOINT mixamorig:LeftLeg
		{
			OFFSET -0.000004 -44.370014 0.346954
			CHANNELS 6 Xposition Yposition Zposition Xrotation Yrotation Zrotation
			JOINT mixamorig:LeftFoot
			{
				OFFSET -0.000001 -44.423672 -3.044401
				CHANNELS 6 Xposition Yposition Zposition Xrotation Yrotation Zrotation
				JOINT mixamorig:LeftToeBase
				{
					OFFSET -0.000002 -8.728669 10.710558
					CHANNELS 6 Xposition Yposition Zposition Xrotation Yrotation Zrotation
					JOINT mixamorig:LeftToe_End
					{
						OFFSET -0.000003 -0.000679 9.278133
						CHANNELS 6 Xposition Yposition Zposition Xrotation Yrotation Zrotation
						End Site
						{
							OFFSET 0.000000 -0.068021 927.813477
						}
					}
				}
			}
		}
	}
}
MOTION
Frames: 3
Frame Time: 0.033333
0.000006 104.270477 1.554256 0.000010 0.000003 -0.000113 -0.000005 10.181587 0.131522 0.000001 -0.000003 0.000084 -0.000000 9.893967 -1.470711 0.000001 0.000000 -0.000000 -0.000000 9.220802 -1.370642 0.000000 -0.000000 -0.000000 0.000001 16.740433 -2.049030 0.000000 -0.000000 -0.000000 0.000000 9.617859 1.685014 0.000000 0.000000 0.000000 0.000002 22.037384 7.501101 0.000000 -0.000000 0.000000 -4.569968 11.014880 -2.160881 0.000008 0.000001 -0.000038 -10.592789 -0.524837 -2.231754 66.800596 65.761936 -46.173749 -27.841482 0.000027 0.000594 34.414130 105.462000 -44.290553 -28.328829 0.000006 0.000022 -0.000320 -0.000045 0.000007 -2.464509 -1.574151 2.682232 44.676793 -128.850644 103.844407 -3.214937 -1.873056 1.924602 -113.906040 -39.520011 -53.889055 -2.654590 -1.528220 1.513071 -146.188246 -33.120847 -76.966588 -2.018822 -1.152002 1.108060 -0.000003 -0.000004 -0.000003 -9.108192 -0.517765 2.260438 -155.768283 33.283457 108.596600 -3.700041 0.000081 0.001741 -399.952163 147.942362 103.419494 -2.850109 0.000175 -0.000014 -401.345276 155.502343 120.172957 -2.772159 -0.000013 -0.000025 -0.000001 -0.000001 -0.000002 -9.532576 -0.000168 0.000382 -90.328138 23.909706 24.101796 -3.700057 -0.000050 0.004186 -100.370340 32.570536 38.599141 -2.950055 -0.000098 -0.001592 -97.657662 27.791276 31.587900 -2.946624 0.000011 -0.000149 0.000002 0.000001 -0.000000 -9.103684 -0.043191 -1.864760 -77.211245 26.260523 21.088001 -3.379322 -0.000139 -0.000634 -91.341978 24.703507 25.277953 -2.889755 -0.000117 0.000791 -91.229013 18.919863 19.348387 -2.638809 0.000000 0.000934 0.000002 -0.000001 0.000000 -8.076778 -0.486803 -3.806028 126.002005 149.723894 -164.320076 -3.600043 -0.000236 -0.003480 -65.089251 11.330658 7.090941 -2.099998 -0.000207 -0.005503 -65.951849 6.183570 3.899443 -2.115762 -0.000054 -0.003668 0.000001 -0.000001 -0.000003 4.570446 11.014691 -2.160851 -0.000018 0.000010 -0.000021 10.592524 -0.524536 -2.232400 68.672976 -64.231611 46.415800 27.841753 -0.000078 -0.000126 237.976331 -79.001485 247.809044 28.328831 -0.000029 0.000020 0.000018 -0.000088 0.000000 2.466174 -1.576146 2.681874 -107.347911 406.126409 51.144282 3.217846 -1.871940 1.916546 78.384228 -205.612326 219.501899 2.656109 -1.528665 1.514618 -114.473970 10.960411 39.367496 2.020884 -1.154092 1.115140 0.000005 0.000003 -0.000001 9.109171 -0.517843 2.260087 -120.741748 -36.624772 -60.388933 3.700006 -0.000025 -0.000250 164.724055 -37.339227 -223.245361 2.850134 0.000136 0.000337 146.240142 -25.811234 -285.889807 2.774888 -0.000032 -0.000037 -0.000001 -0.000000 -0.000000 9.533352 0.000195 0.000286 275.748643 -21.685803 -19.651149 3.699894 0.000218 0.000031 250.428394 -24.788175 -34.587685 2.949911 0.000225 0.000195 245.290453 -19.773311 -30.440435 2.952867 -0.000015 0.000067 -0.000001 -0.000003 -0.000000 9.104506 -0.042907 -1.864835 -70.975043 -18.254259 -13.069625 3.149953 0.000206 0.000294 270.166084 -16.717592 -16.670914 2.949943 0.000208 0.000306 266.811614 -11.728568 -12.396203 2.644329 0.000032 0.000045 0.000002 0.000001 -0.000002 8.077782 -0.486842 -3.806095 -42.495221 -16.640245 -6.608663 3.599953 0.000064 0.014949 304.828010 -4.513849 -2.557906 2.099992 0.000093 0.007932 -63.061982 -2.095694 -1.523604 2.125503 -0.000016 0.007512 -0.000000 0.000000 0.000000 -8.207786 -6.751667 -1.599560 -0.077001 -0.000003 0.000080 -0.000002 -44.370110 0.345938 0.153719 -0.000000 -0.000000 0.000000 -44.423679 -3.043532 -0.076700 0.000000 -0.000002 -0.000006 -8.728667 10.710559 -0.000009 -0.000000 -0.000000 -0.000001 -0.000679 9.278123 0.000000 -0.000000 -0.000000 8.207792 -6.751710 -1.599556 -0.074518 -0.000003 0.000081 -0.000002 -44.370014 0.346960 0.148822 0.000002 0.000000 -0.000001 -44.423664 -3.044403 -0.074314 0.000000 -0.000002 -0.000004 -8.728671 10.710558 0.000007 -0.000000 -0.000000 0.000000 -0.000680 9.278137 -0.000000 0.000000 -0.000001 
0.000006 104.270477 1.554256 0.000010 0.000003 -0.000113 -0.000005 10.181587 0.131522 0.000001 -0.000003 0.000084 -0.000000 9.893967 -1.470711 0.000001 0.000000 -0.000000 -0.000000 9.220802 -1.370642 0.000000 -0.000000 -0.000000 0.000001 16.740433 -2.049030 0.000000 -0.000000 -0.000000 0.000000 9.617859 1.685014 0.000000 0.000000 0.000000 0.000002 22.037384 7.501101 0.000000 -0.000000 0.000000 -4.569968 11.014880 -2.160881 0.000008 0.000001 -0.000038 -10.592803 -0.524842 -2.231761 66.347119 62.889336 -43.576552 -27.841480 -0.000004 0.000580 27.454149 103.143540 -34.225760 -28.328835 0.000006 0.000022 -0.000325 -0.000045 0.000006 -2.464511 -1.574202 2.682199 58.409012 -128.382899 115.303729 -3.214973 -1.873065 1.924603 -112.015717 -33.457374 -49.493668 -2.654666 -1.528235 1.513060 -139.625801 -26.076230 -65.908354 -2.018846 -1.152028 1.108060 -0.000001 -0.000006 0.000004 -9.108213 -0.517800 2.260442 -148.363757 34.283974 94.846916 -3.699979 0.000025 0.001769 -387.323362 147.060789 78.926285 -2.850105 0.000138 -0.000034 -397.315546 156.395308 116.501977 -2.772174 -0.000013 -0.000020 0.000001 0.000001 0.000001 -9.532575 -0.000174 0.000376 -88.724205 22.617931 22.192830 -3.700048 -0.000068 0.004195 -103.211549 29.428434 36.634894 -2.950047 -0.000110 -0.001587 -100.896401 25.414897 30.540921 -2.946626 0.000014 -0.000163 -0.000001 -0.000004 0.000001 -9.103684 -0.043200 -1.864773 -74.233221 23.395129 17.795718 -3.379326 -0.000118 -0.000611 -93.773443 24.103444 25.700752 -2.889740 -0.000089 0.000822 -96.608470 18.044301 20.241460 -2.638807 -0.000014 0.000955 -0.000002 0.000000 0.000002 -8.076773 -0.486797 -3.806055 132.578794 151.976832 -167.505239 -3.600039 -0.000229 -0.003473 -67.500219 12.647733 8.314020 -2.100015 -0.000201 -0.005442 -75.029614 7.636167 5.733744 -2.115771 -0.000012 -0.003675 0.000001 0.000001 -0.000002 4.570446 11.014691 -2.160851 -0.000018 0.000010 -0.000021 10.592533 -0.524531 -2.232399 70.518527 -64.573141 48.140526 27.841761 -0.000043 -0.000137 232.230366 -81.155836 239.573721 28.328835 -0.000015 0.000027 0.000018 -0.000090 -0.000001 2.466176 -1.576123 2.681881 -109.512685 403.103886 51.308087 3.217848 -1.871954 1.916550 80.929907 -206.833455 218.611788 2.656080 -1.528682 1.514625 -117.837975 17.517299 45.030775 2.020895 -1.154058 1.115145 0.000003 0.000003 0.000004 9.109161 -0.517818 2.260097 -122.899501 -34.999361 -60.181179 3.700069 0.000003 -0.000286 153.440855 -38.745758 -247.694543 2.850131 0.000178 0.000316 138.486047 -24.461868 -300.468546 2.774869 -0.000042 -0.000029 -0.000000 -0.000001 0.000001 9.533351 0.000202 0.000288 274.781953 -23.474774 -21.635835 3.699858 0.000206 0.000031 246.927786 -31.182542 -45.774446 2.949873 0.000240 0.000193 237.434150 -24.701258 -43.570702 2.952873 -0.000012 0.000060 -0.000001 0.000000 0.000000 9.104488 -0.042902 -1.864852 -72.855483 -22.248629 -16.514597 3.149920 0.000202 0.000329 267.731394 -24.347140 -25.300491 2.949906 0.000232 0.000313 263.198608 -17.558765 -19.737222 2.644323 0.000034 0.000056 -0.000000 -0.000000 0.000001 8.077759 -0.486837 -3.806098 -42.925857 -24.903642 -9.979327 3.599936 0.000081 0.014945 302.658632 -11.451803 -6.449541 2.099996 0.000090 0.007922 -62.168607 -5.739529 -3.677234 2.125498 -0.000003 0.007515 0.000002 0.000001 -0.000001 -8.207786 -6.751667 -1.599560 -0.077001 -0.000003 0.000080 -0.000002 -44.370110 0.345938 0.153719 -0.000000 -0.000000 0.000000 -44.423679 -3.043532 -0.076700 0.000000 -0.000002 -0.000006 -8.728667 10.710559 -0.000009 -0.000000 -0.000000 -0.000001 -0.000679 9.278123 0.000000 -0.000000 -0.000000 8.207792 -6.751710 -1.599556 -0.074518 -0.000003 0.000081 -0.000002 -44.370014 0.346960 0.148822 0.000002 0.000000 -0.000001 -44.423664 -3.044403 -0.074314 0.000000 -0.000002 -0.000004 -8.728671 10.710558 0.000007 -0.000000 -0.000000 0.000000 -0.000680 9.278137 -0.000000 0.000000 -0.000001 
0.000006 104.270477 1.554256 0.000010 0.000003 -0.000113 -0.000005 10.181587 0.131522 0.000001 -0.000003 0.000084 -0.000000 9.893967 -1.470711 0.000001 0.000000 -0.000000 -0.000000 9.220802 -1.370642 0.000000 -0.000000 -0.000000 0.000001 16.740433 -2.049030 0.000000 -0.000000 -0.000000 0.000000 9.617859 1.685014 0.000000 0.000000 0.000000 0.000002 22.037384 7.501101 0.000000 -0.000000 0.000000 -4.569968 11.014880 -2.160881 0.000008 0.000001 -0.000038 -10.592802 -0.524840 -2.231764 66.726358 61.581928 -42.847949 -27.841496 0.000006 0.000589 33.155395 102.978530 -41.021935 -28.328829 0.000005 0.000026 -0.000321 -0.000044 0.000007 -2.464517 -1.574212 2.682175 65.467466 -130.983508 122.270372 -3.214996 -1.873060 1.924577 -103.079439 -28.998763 -41.830513 -2.654683 -1.528259 1.513035 -127.930522 -22.884026 -54.915844 -2.018827 -1.152009 1.108057 -0.000006 0.000001 0.000005 -9.108233 -0.517792 2.260422 -143.282943 34.475858 86.143261 -3.699986 0.000011 0.001786 -384.990825 146.577676 72.940540 -2.850126 0.000184 -0.000020 -399.396924 158.527994 124.192633 -2.772171 0.000007 -0.000017 -0.000000 0.000001 -0.000000 -9.532572 -0.000183 0.000366 -87.592415 20.224009 19.473110 -3.700039 -0.000084 0.004189 -100.156050 26.287393 31.142794 -2.950044 -0.000118 -0.001619 -97.607201 20.456710 23.291700 -2.946617 -0.000001 -0.000146 -0.000003 0.000000 0.000000 -9.103682 -0.043180 -1.864790 -76.295610 22.258150 17.551687 -3.379335 -0.000150 -0.000643 -90.594038 21.255497 21.480547 -2.889747 -0.000140 0.000792 -94.203321 13.116925 14.139359 -2.638810 -0.000012 0.000941 -0.000002 -0.000002 0.000001 -8.076754 -0.486810 -3.806063 127.911275 156.247080 -168.289386 -3.600027 -0.000237 -0.003451 -68.761201 9.158211 6.097360 -2.099998 -0.000214 -0.005452 -80.129368 3.476791 2.765572 -2.115776 -0.000056 -0.003686 0.000001 0.000002 -0.000003 4.570446 11.014691 -2.160851 -0.000018 0.000010 -0.000021 10.592527 -0.524532 -2.232398 71.419204 -64.802649 49.045526 27.841761 -0.000070 -0.000127 235.333102 -80.542745 243.500287 28.328840 -0.000030 0.000016 0.000017 -0.000088 -0.000000 2.466169 -1.576137 2.681898 -110.613787 403.459875 52.258703 3.217858 -1.871950 1.916538 79.949570 -207.985558 219.634664 2.656083 -1.528689 1.514621 -115.483445 19.962473 45.119202 2.020899 -1.154096 1.115153 0.000001 0.000003 -0.000001 9.109163 -0.517828 2.260098 -119.554047 -33.501876 -54.644703 3.700025 -0.000030 -0.000270 161.571731 -38.566636 -229.702568 2.850139 0.000177 0.000329 141.594206 -25.662429 -293.638138 2.774892 -0.000025 -0.000020 0.000002 0.000000 -0.000005 9.533352 0.000202 0.000287 270.662338 -20.930662 -20.691245 3.699866 0.000215 0.000026 250.040795 -26.502657 -37.150109 2.949903 0.000224 0.000176 245.299878 -21.232316 -32.612985 2.952865 -0.000013 0.000067 -0.000001 0.000002 -0.000003 9.104484 -0.042905 -1.864841 -77.422933 -20.112419 -16.179694 3.149930 0.000213 0.000316 268.191039 -21.192919 -21.857608 2.949919 0.000217 0.000312 265.134857 -15.482111 -16.838095 2.644318 0.000019 0.000050 -0.000002 -0.000001 -0.000000 8.077750 -0.486822 -3.806075 -48.288242 -21.753922 -9.939658 3.599939 0.000087 0.014948 299.127698 -10.139802 -6.162675 2.099988 0.000087 0.007957 -66.451033 -5.742111 -3.997797 2.125498 -0.000032 0.007505 0.000001 0.000001 -0.000001 -8.207786 -6.751667 -1.599560 -0.077001 -0.000003 0.000080 -0.000002 -44.370110 0.345938 0.153719 -0.000000 -0.000000 0.000000 -44.423679 -3.043532 -0.076700 0.000000 -0.000002 -0.000006 -8.728667 10.710559 -0.000009 -0.000000 -0.000000 -0.000001 -0.000679 9.278123 0.000000 -0.000000 -0.000000 8.207792 -6.751710 -1.599556 -0.074518 -0.000003 0.000081 -0.000002 -44.370014 0.346960 0.148822 0.000002 0.000000 -0.000001 -44.423664 -3.044403 -0.074314 0.000000 -0.000002 -0.000004 -8.728671 10.710558 0.000007 -0.000000 -0.000000 0.000000 -0.000680 9.278137 -0.000000 0.000000 -0.000001 
